{"asset":{"version":"2.0","generator":"babylon.js glTF exporter for 3dsmax 2020 v20200618.4"},"extensionsUsed":["KHR_texture_transform"],"extensionsRequired":["KHR_texture_transform"],"scene":0,"scenes":[{"nodes":[0,1,2]}],"nodes":[{"translation":[-86.78213,2.51103568,-32.358],"rotation":[0.7071068,0.0,0.0,0.7071067],"scale":[1.1,1.1,1.1],"name":"Shape219"},{"mesh":0,"name":"Object653"},{"name":"Default light"}],"meshes":[{"primitives":[{"attributes":{"POSITION":1,"NORMAL":2,"TEXCOORD_0":3},"indices":0,"material":0}],"name":"Object653"}],"accessors":[{"bufferView":0,"componentType":5123,"count":1236,"type":"SCALAR","name":"accessorIndices"},{"bufferView":1,"componentType":5126,"count":1236,"max":[46.93391,11.5669966,-29.058],"min":[-81.77462,0.745881259,-30.1580372],"type":"VEC3","name":"accessorPositions"},{"bufferView":1,"byteOffset":14832,"componentType":5126,"count":1236,"type":"VEC3","name":"accessorNormals"},{"bufferView":2,"componentType":5126,"count":1236,"type":"VEC2","name":"accessorUVs"}],"bufferViews":[{"buffer":0,"byteLength":2472,"name":"bufferViewScalar"},{"buffer":0,"byteOffset":2472,"byteLength":29664,"byteStride":12,"name":"bufferViewFloatVec3"},{"buffer":0,"byteOffset":32136,"byteLength":9888,"byteStride":8,"name":"bufferViewFloatVec2"}],"buffers":[{"uri":"gangjuan.bin","byteLength":42024}],"materials":[{"pbrMetallicRoughness":{"baseColorTexture":{"index":0,"extensions":{"KHR_texture_transform":{"offset":[0.0,0.0],"scale":[1.0,1.0],"texCoord":0}}},"metallicFactor":0.0,"roughnessFactor":0.450053632},"name":"Material #203"}],"textures":[{"sampler":0,"source":0,"name":"timg.jpg"}],"images":[{"uri":"./timg.jpg"}],"samplers":[{"magFilter":9729,"minFilter":9987}]}