{"asset":{"version":"2.0","generator":"babylon.js glTF exporter for 3dsmax 2020 v20200618.4"},"scene":0,"scenes":[{"nodes":[0,1]}],"nodes":[{"mesh":0,"translation":[2.756714E-09,0.761380732,-1.30719352],"rotation":[0.7071068,0.0,0.0,0.7071067],"scale":[10.0,10.0,10.0],"name":"object.008"},{"name":"Default light"}],"meshes":[{"primitives":[{"attributes":{"POSITION":1,"NORMAL":2,"COLOR_0":3,"TEXCOORD_0":4},"indices":0,"material":0}],"name":"object.008"}],"accessors":[{"bufferView":0,"componentType":5123,"count":48678,"type":"SCALAR","name":"accessorIndices"},{"bufferView":1,"componentType":5126,"count":48678,"max":[0.113323994,0.357271373,0.08560631],"min":[-0.113324009,-0.09583263,-0.0421112739],"type":"VEC3","name":"accessorPositions"},{"bufferView":1,"byteOffset":584136,"componentType":5126,"count":48678,"type":"VEC3","name":"accessorNormals"},{"bufferView":2,"componentType":5126,"count":48678,"type":"VEC4","name":"accessorColors"},{"bufferView":3,"componentType":5126,"count":48678,"type":"VEC2","name":"accessorUVs"}],"bufferViews":[{"buffer":0,"byteLength":97356,"name":"bufferViewScalar"},{"buffer":0,"byteOffset":97356,"byteLength":1168272,"byteStride":12,"name":"bufferViewFloatVec3"},{"buffer":0,"byteOffset":1265628,"byteLength":778848,"byteStride":16,"name":"bufferViewFloatVec4"},{"buffer":0,"byteOffset":2044476,"byteLength":389424,"byteStride":8,"name":"bufferViewFloatVec2"}],"buffers":[{"uri":"car.bin","byteLength":2433900}],"materials":[{"pbrMetallicRoughness":{"baseColorFactor":[0.0281742942,0.0281742942,0.0281742942,1.0],"metallicFactor":0.0,"roughnessFactor":0.293834329},"name":"eng"}]}