{"asset":{"version":"2.0","generator":"babylon.js glTF exporter for 3dsmax 2020 v20200618.4"},"scene":0,"scenes":[{"nodes":[0,1,2,3]}],"nodes":[{"mesh":0,"rotation":[0.7071068,0.0,0.0,0.7071067],"name":"Low"},{"mesh":1,"rotation":[0.7071068,0.0,0.0,0.7071067],"name":"Object001"},{"mesh":2,"rotation":[0.7071068,0.0,0.0,0.7071067],"name":"Object002"},{"name":"Default light"}],"meshes":[{"primitives":[{"attributes":{"POSITION":1,"NORMAL":2,"TEXCOORD_0":3},"indices":0,"material":0}],"name":"Low"},{"primitives":[{"attributes":{"POSITION":5,"NORMAL":6,"TEXCOORD_0":7},"indices":4,"material":1}],"name":"Object001"},{"primitives":[{"attributes":{"POSITION":9,"NORMAL":10,"TEXCOORD_0":11},"indices":8,"material":1}],"name":"Object002"}],"accessors":[{"bufferView":0,"componentType":5123,"count":198,"type":"SCALAR","name":"accessorIndices"},{"bufferView":1,"componentType":5126,"count":198,"max":[0.376413,0.0635912,0.0140145],"min":[-1.0,-0.0616919,-0.0147094],"type":"VEC3","name":"accessorPositions"},{"bufferView":1,"byteOffset":2376,"componentType":5126,"count":198,"type":"VEC3","name":"accessorNormals"},{"bufferView":2,"componentType":5126,"count":198,"type":"VEC2","name":"accessorUVs"},{"bufferView":0,"byteOffset":396,"componentType":5123,"count":2292,"type":"SCALAR","name":"accessorIndices"},{"bufferView":1,"byteOffset":4752,"componentType":5126,"count":2292,"max":[1.0,0.191593,0.0352475],"min":[0.335475,-0.191593,-0.0352475],"type":"VEC3","name":"accessorPositions"},{"bufferView":1,"byteOffset":32256,"componentType":5126,"count":2292,"type":"VEC3","name":"accessorNormals"},{"bufferView":2,"byteOffset":1584,"componentType":5126,"count":2292,"type":"VEC2","name":"accessorUVs"},{"bufferView":0,"byteOffset":4980,"componentType":5123,"count":96,"type":"SCALAR","name":"accessorIndices"},{"bufferView":1,"byteOffset":59760,"componentType":5126,"count":96,"max":[0.376413,0.0635912,0.0140145],"min":[-1.0,-0.0616919,-0.0147094],"type":"VEC3","name":"accessorPositions"},{"bufferView":1,"byteOffset":60912,"componentType":5126,"count":96,"type":"VEC3","name":"accessorNormals"},{"bufferView":2,"byteOffset":19920,"componentType":5126,"count":96,"type":"VEC2","name":"accessorUVs"}],"bufferViews":[{"buffer":0,"byteLength":5172,"name":"bufferViewScalar"},{"buffer":0,"byteOffset":5172,"byteLength":62064,"byteStride":12,"name":"bufferViewFloatVec3"},{"buffer":0,"byteOffset":67236,"byteLength":20688,"byteStride":8,"name":"bufferViewFloatVec2"}],"buffers":[{"uri":"sword.bin","byteLength":87924}],"materials":[{"pbrMetallicRoughness":{"baseColorFactor":[0.588,0.588,0.588,1.0],"metallicFactor":0.0,"roughnessFactor":0.450053632},"name":"Material #26"},{"pbrMetallicRoughness":{"baseColorTexture":{"index":0},"metallicFactor":0.0,"roughnessFactor":0.450053632},"name":"Material #25"}],"textures":[{"sampler":0,"source":0,"name":"wire_135059008_albedo.jpg"}],"images":[{"uri":"./wire_135059008_albedo.jpg"}],"samplers":[{"magFilter":9729,"minFilter":9987}]}